<svg width="150" height="150" viewBox="0 0 150 150" fill="none" xmlns="http://www.w3.org/2000/svg">
<rect width="150" height="150" rx="75" fill="#FEECDD"/>
<path d="M92.6813 74.675L101.519 65.8375L75 39.3125L48.4813 65.8313L57.325 74.6687L68.75 63.25V110.356H81.25V63.25L92.6813 74.675Z" fill="#FF6D0B"/>
<path fill-rule="evenodd" clip-rule="evenodd" d="M123.612 26.3875C96.7625 -0.462499 53.2375 -0.462499 26.3875 26.3875C-0.462499 53.2375 -0.462499 96.7625 26.3875 123.612C53.2375 150.462 96.7625 150.462 123.612 123.612C150.462 96.7625 150.462 53.2375 123.612 26.3875ZM114.775 35.225C104.226 24.676 89.9185 18.7497 75 18.7497C60.0815 18.7497 45.774 24.676 35.225 35.225C24.676 45.774 18.7497 60.0815 18.7497 75C18.7497 89.9185 24.676 104.226 35.225 114.775C45.774 125.324 60.0815 131.25 75 131.25C89.9185 131.25 104.226 125.324 114.775 114.775C125.324 104.226 131.25 89.9185 131.25 75C131.25 60.0815 125.324 45.774 114.775 35.225Z" fill="#FEECDD"/>
</svg>
